<svg xmlns="http://www.w3.org/2000/svg" xmlns:xlink="http://www.w3.org/1999/xlink" width="22.00006103515625" height="22.11529541015625" viewBox="0 0 22.00006103515625 22.11529541015625" fill="none">
<path d="M10.4893 14.8554L9.60684 16.8779C9.26755 17.6553 8.19255 17.6553 7.85327 16.8779L6.97082 14.8554C6.18531 13.0556 4.77181 11.6228 3.00849 10.8398L0.579255 9.76102C-0.193085 9.41802 -0.193085 8.29391 0.579255 7.95091L2.93236 6.90558C4.74099 6.10235 6.18004 4.61654 6.95185 2.75533L7.84589 0.599855C8.17753 -0.199952 9.28204 -0.199952 9.61395 0.599855L10.508 2.75533C11.2798 4.61654 12.7189 6.10235 14.5275 6.90558L16.8808 7.95091C17.6532 8.29391 17.6532 9.41802 16.8808 9.76102L14.4516 10.8401C12.688 11.6228 11.2745 13.0556 10.4893 14.8554Z"   fill="url(#linear_fill_50_4)" >
</path>
<path d="M18.6905 21.2329L18.4424 21.8022C18.2606 22.219 17.684 22.219 17.5025 21.8022L17.2544 21.2329C16.8121 20.2182 16.015 19.4102 15.0209 18.9681L14.2562 18.6283C13.8426 18.4444 13.8426 17.843 14.2562 17.6594L14.9782 17.3385C15.9981 16.8851 16.8092 16.0471 17.2441 14.9978L17.4988 14.3827C17.6764 13.9541 18.2688 13.9541 18.4463 14.3827L18.7013 14.9978C19.1362 16.0471 19.9473 16.8851 20.9672 17.3385L21.6893 17.6594C22.1028 17.8432 22.1028 18.4447 21.6893 18.6283L20.9246 18.9681C19.9296 19.4099 19.1328 20.2182 18.6905 21.2329Z"   fill="url(#linear_fill_50_5)" >
</path>
<defs>
<linearGradient id="linear_fill_50_4" x1="0" y1="8.73077392578125" x2="17.4598388671875" y2="8.73077392578125" gradientUnits="userSpaceOnUse">
<stop offset="0" stop-color="#1BA1E3"  />
<stop offset="0.3001999855041504" stop-color="#5489D6"  />
<stop offset="0.5454999804496765" stop-color="#9B72CB"  />
<stop offset="0.8253999948501587" stop-color="#D96570"  />
<stop offset="1" stop-color="#F49C46"  />
</linearGradient>
<radialGradient id="linear_fill_50_5" cx="0" cy="0" r="1" gradientTransform="translate(13.67022705078125 9.69610595703125) rotate(-191.13536266209178) scale(13.639300047114814, 13.6404049466158)" gradientUnits="userSpaceOnUse">
<stop offset="0" stop-color="#1BA1E3"  />
<stop offset="0.3001999855041504" stop-color="#5489D6"  />
<stop offset="0.5454999804496765" stop-color="#9B72CB"  />
<stop offset="0.8253999948501587" stop-color="#D96570"  />
<stop offset="1" stop-color="#F49C46"  />
</radialGradient>
</defs>
</svg>
