<svg xmlns="http://www.w3.org/2000/svg" xmlns:xlink="http://www.w3.org/1999/xlink" width="28.659536439704652" height="27.371328431891925" viewBox="0 0 28.659536439704652 27.371328431891925" fill="none">
<g filter="url(#filter_60_24)">
<path   fill="rgba(157, 178, 206, 1)"  d="M26.0388 11.335L17.1666 11.3544Q16.8214 11.3551 16.5421 11.1522Q16.2629 10.9493 16.1569 10.6208L13.4337 2.17683C13.7143 3.04687 14.9452 3.04686 15.2258 2.17683L12.5026 10.6208Q12.3967 10.9493 12.1174 11.1522Q11.8381 11.3551 11.4929 11.3544L2.62073 11.335C3.53489 11.337 3.91527 10.1663 3.17453 9.63055L10.3637 14.8298Q10.6434 15.0321 10.7501 15.3604Q10.8567 15.6887 10.7493 16.0168L7.98925 24.4487C8.27364 23.5799 7.27777 22.8564 6.53937 23.3954L13.7057 18.1647Q13.9846 17.9612 14.3298 17.9612Q14.675 17.9612 14.9538 18.1647L22.1201 23.3953C21.3817 22.8564 20.3859 23.5799 20.6703 24.4487L17.9102 16.0168Q17.8028 15.6887 17.9095 15.3604Q18.0161 15.0321 18.2959 14.8298L25.485 9.63055C24.7443 10.1662 25.1246 11.337 26.0388 11.335ZM26.0344 9.33498C27.0622 9.33273 27.4898 10.6489 26.657 11.2512L19.4679 16.4504Q19.7167 16.2705 19.8116 15.9784Q19.9065 15.6864 19.8109 15.3946L22.571 23.8266C22.8908 24.8033 21.7712 25.6167 20.941 25.0108L13.7747 19.7802Q14.0227 19.9612 14.3298 19.9612Q14.6368 19.9612 14.8848 19.7802L7.71849 25.0108C6.88836 25.6167 5.76877 24.8033 6.08849 23.8265L8.84859 15.3946Q8.75306 15.6864 8.84795 15.9784Q8.94284 16.2705 9.19164 16.4504L2.00249 11.2512C1.16972 10.6489 1.59736 9.33273 2.6251 9.33498L11.4973 9.35437Q11.1902 9.3537 10.9418 9.53418Q10.6934 9.71466 10.5992 10.0069L13.3224 1.56296C13.6378 0.584831 15.0217 0.584821 15.3372 1.56295L18.0604 10.0069Q17.9661 9.71466 17.7177 9.53418Q17.4693 9.3537 17.1622 9.35437L26.0344 9.33498Z">
</path>
</g>
<defs>
<filter id="filter_60_24" x="0" y="0" width="28.659536439704652" height="27.371328431891925" filterUnits="userSpaceOnUse" color-interpolation-filters="sRGB">
<feFlood flood-opacity="0" result="feFloodId_60_24"/>
<feColorMatrix in="SourceAlpha" type="matrix" values="0 0 0 0 0 0 0 0 0 0 0 0 0 0 0 0 0 0 127 0" result="hardAlpha_60_24"/>
<feOffset dx="0" dy="0.584867020082389"/>
<feGaussianBlur stdDeviation="0.584867020082389"/>
<feComposite in2="hardAlpha_60_24" operator="out"/>
<feColorMatrix type="matrix" values="0 0 0 0 0 0 0 0 0 0 0 0 0 0 0 0 0 0 0.25 0"/>
<feBlend mode="normal" in2="feFloodId_60_24" result="dropShadow_1_60_24"/>
<feBlend mode="normal" in="SourceGraphic" in2="dropShadow_1_60_24" result="shape_60_24"/>
</filter>
</defs>
</svg>
