<svg xmlns="http://www.w3.org/2000/svg" xmlns:xlink="http://www.w3.org/1999/xlink" width="11.419998168945312" height="19.8800048828125" viewBox="0 0 11.419998168945312 19.8800048828125" fill="none">
<path d="M10.1204 19.88C10.8501 19.88 11.42 19.3194 11.42 18.5798C11.42 18.22 11.2704 17.89 11.0294 17.6395L3.13022 9.94L11.0294 2.24048C11.2704 1.98005 11.42 1.65004 11.42 1.29021C11.42 0.560616 10.8501 0 10.1204 0C9.75953 0 9.43977 0.11928 9.21023 0.369768L0.449948 8.94004C0.149602 9.23028 0.010278 9.56029 0 9.94C0 10.3197 0.149602 10.6497 0.449948 10.94L9.21023 19.5102C9.43977 19.7607 9.75953 19.88 10.1204 19.88Z"   fill="#007AFF" >
</path>
</svg>
