<svg xmlns="http://www.w3.org/2000/svg" xmlns:xlink="http://www.w3.org/1999/xlink" width="142" height="142" viewBox="0 0 142 142" fill="none">
<g filter="url(#filter_0_851)">
<circle  cx="69" cy="69" r="65"    fill="#F5F5F5" >
</circle>
</g>
<path   fill="rgba(0, 0, 0, 1)"  d="M123.277 33.416L15.2773 105.416L14.7226 104.584L122.723 32.584L123.277 33.416ZM123.49 33.098L123.49 33.098C123.436 33.3685 123.173 33.5439 122.902 33.4898L118.004 32.5102C117.734 32.4561 117.558 32.1929 117.612 31.9224L117.612 31.9224C117.666 31.6519 117.929 31.4765 118.2 31.5306L123.098 32.5102C123.368 32.5643 123.544 32.8274 123.49 33.098ZM123.098 32.5102L123.098 32.5102C123.368 32.5643 123.544 32.8274 123.49 33.098L122.51 37.996C122.456 38.2665 122.193 38.4419 121.922 38.3878L121.922 38.3878C121.652 38.3337 121.477 38.0705 121.531 37.8L122.51 32.902C122.564 32.6315 122.827 32.4561 123.098 32.5102ZM14.5102 104.902L14.5102 104.902C14.5643 104.632 14.8275 104.456 15.098 104.51L19.996 105.49C20.2665 105.544 20.4419 105.807 20.3878 106.078L20.3878 106.078C20.3337 106.348 20.0705 106.524 19.8 106.469L14.902 105.49C14.6315 105.436 14.4561 105.173 14.5102 104.902ZM14.902 105.49L14.902 105.49C14.6315 105.436 14.4561 105.173 14.5102 104.902L15.4898 100.004C15.5439 99.7335 15.8071 99.5581 16.0776 99.6122L16.0776 99.6122C16.3481 99.6663 16.5235 99.9295 16.4694 100.2L15.4898 105.098C15.4357 105.368 15.1725 105.544 14.902 105.49Z">
</path>
<g >
<path     fill="#000000"  d="M54.6468 70.2428Q55.306 69.8038 55.9917 69.7726Q56.6773 69.7414 57.2679 70.0762Q57.8584 70.411 58.2641 71.0203Q58.6897 71.6596 58.7526 72.3602Q58.8154 73.0608 58.5072 73.6914Q58.1989 74.3219 57.5597 74.7475Q56.9204 75.1731 56.2281 75.216Q55.5358 75.2589 54.9336 74.939Q54.3314 74.6192 53.9324 74.0198Q53.5599 73.4605 53.4421 72.8613Q53.3243 72.2622 53.3016 71.297L53.2309 66.947L53.5805 66.7142L53.6612 71.0576L53.6542 71.5668Q53.8877 70.7482 54.6468 70.2428ZM57.3801 74.4778Q57.9395 74.1054 58.1944 73.568Q58.4493 73.0307 58.3848 72.4249Q58.3202 71.8191 57.9411 71.2498Q57.5754 70.7004 57.0713 70.4089Q56.5672 70.1174 55.9781 70.142Q55.389 70.1666 54.8197 70.5457Q54.2304 70.9381 53.9871 71.5038Q53.7438 72.0694 53.825 72.6785Q53.9062 73.2876 54.252 73.807Q54.6178 74.3564 55.1418 74.6346Q55.6658 74.9128 56.2483 74.8782Q56.8308 74.8436 57.3801 74.4778ZM59.8143 66.6147Q60.4236 66.209 61.0976 66.1711Q61.7715 66.1332 62.3887 66.4648Q63.0059 66.7963 63.4515 67.4655Q63.8904 68.1247 63.9732 68.8337Q64.056 69.5426 63.7595 70.1798Q63.4629 70.817 62.8036 71.2559Q62.1244 71.7082 61.3872 71.7161Q60.65 71.724 59.9447 71.2277L60.1013 70.9216Q60.7401 71.3612 61.3791 71.3683Q62.0181 71.3753 62.6174 70.9763Q63.1968 70.5905 63.4417 70.0382Q63.6866 69.4859 63.6021 68.8717Q63.5176 68.2577 63.1385 67.6883Q62.7594 67.119 62.2321 66.8141Q61.7048 66.5093 61.1173 66.5256Q60.5299 66.5419 59.9605 66.921Q58.9317 67.606 58.9243 68.894L58.7013 68.9271L56.6503 64.6559L59.7068 62.6208L59.893 62.9005L57.0962 64.7626L58.735 68.1983Q58.8019 67.7357 59.0833 67.3248Q59.3648 66.914 59.8143 66.6147ZM67.8523 60.1094Q68.5316 59.6572 69.3052 59.8773Q70.0789 60.0974 70.7174 61.0563L72.932 64.3824L72.6424 64.5753L70.4743 61.3191Q69.8957 60.4501 69.2318 60.2433Q68.5679 60.0366 67.9786 60.429Q67.5691 60.7017 67.3725 61.1425Q67.1759 61.5834 67.2571 62.1493Q67.3383 62.7151 67.7373 63.3144L69.8256 66.4508L69.5359 66.6436L67.3679 63.3874Q66.7892 62.5184 66.1204 62.315Q65.4516 62.1116 64.8722 62.4973Q64.4627 62.77 64.2611 63.2142Q64.0595 63.6584 64.1357 64.2276Q64.2119 64.7967 64.6109 65.396L66.6992 68.5324L66.4095 68.7253L62.9379 63.5113L63.1877 63.345Q63.7397 64.1741 63.9591 64.4604Q63.7698 63.7647 63.9782 63.1575Q64.1866 62.5502 64.7359 62.1844Q65.2853 61.8186 65.9193 61.8939Q66.5533 61.9691 67.1221 62.5419Q66.8729 61.7996 67.0729 61.1474Q67.273 60.4951 67.8523 60.1094ZM76.1428 54.5894Q76.822 54.1372 77.5957 54.3573Q78.3694 54.5774 79.0078 55.5363L81.2225 58.8625L80.9328 59.0553L78.7647 55.7991Q78.1861 54.9301 77.5222 54.7233Q76.8584 54.5166 76.2691 54.909Q75.8595 55.1817 75.6629 55.6225Q75.4663 56.0634 75.5475 56.6293Q75.6287 57.1951 76.0278 57.7944L78.116 60.9308L77.8264 61.1237L75.6583 57.8674Q75.0797 56.9984 74.4108 56.795Q73.742 56.5916 73.1627 56.9773Q72.7531 57.25 72.5515 57.6942Q72.3499 58.1384 72.4261 58.7076Q72.5023 59.2767 72.9014 59.876L74.9897 63.0124L74.7 63.2053L71.2284 57.9913L71.4781 57.825Q72.0301 58.6541 72.2496 58.9404Q72.0603 58.2447 72.2686 57.6375Q72.477 57.0302 73.0264 56.6644Q73.5757 56.2986 74.2097 56.3739Q74.8437 56.4491 75.4125 57.0219Q75.1633 56.2796 75.3634 55.6274Q75.5634 54.9752 76.1428 54.5894Z">
</path>
</g>
<defs>
<filter id="filter_0_851" x="0" y="0" width="142" height="142" filterUnits="userSpaceOnUse" color-interpolation-filters="sRGB">
<feFlood flood-opacity="0" result="feFloodId_0_851"/>
<feColorMatrix in="SourceAlpha" type="matrix" values="0 0 0 0 0 0 0 0 0 0 0 0 0 0 0 0 0 0 127 0" result="hardAlpha_0_851"/>
<feOffset dx="2" dy="2"/>
<feGaussianBlur stdDeviation="3"/>
<feComposite in2="hardAlpha_0_851" operator="out"/>
<feColorMatrix type="matrix" values="0 0 0 0 0 0 0 0 0 0 0 0 0 0 0 0 0 0 0.25 0"/>
<feBlend mode="normal" in2="feFloodId_0_851" result="dropShadow_1_0_851"/>
<feBlend mode="normal" in="SourceGraphic" in2="dropShadow_1_0_851" result="shape_0_851"/>
</filter>
</defs>
</svg>
