<svg xmlns="http://www.w3.org/2000/svg" xmlns:xlink="http://www.w3.org/1999/xlink" width="124" height="124" viewBox="0 0 124 124" fill="none">
<g filter="url(#filter_0_788)">
<circle cx="60" cy="60" r="56"   fill="#F5F5F5" >
</circle>
</g>
<path   fill="rgba(0, 0, 0, 1)"  d="M106.279 29.4146L14.2794 91.4146L13.7206 90.5854L105.721 28.5854L106.279 29.4146ZM106.49 29.0955L106.49 29.0955C106.438 29.3663 106.175 29.543 105.904 29.4903L101.002 28.5352C100.731 28.4824 100.554 28.2202 100.607 27.9494L100.607 27.9494C100.66 27.6786 100.922 27.5019 101.193 27.5546L106.096 28.5097C106.366 28.5625 106.543 28.8247 106.49 29.0955ZM106.096 28.5097L106.096 28.5097C106.366 28.5625 106.543 28.8247 106.49 29.0955L105.535 33.9983C105.482 34.2691 105.22 34.4459 104.949 34.3931L104.949 34.3931C104.679 34.3404 104.502 34.0781 104.555 33.8073L105.51 28.9045C105.562 28.6337 105.825 28.457 106.096 28.5097ZM13.5097 90.9045L13.5097 90.9045C13.5625 90.6337 13.8247 90.457 14.0955 90.5097L18.9984 91.4648C19.2691 91.5176 19.4459 91.7798 19.3931 92.0506L19.3931 92.0506C19.3404 92.3214 19.0781 92.4981 18.8073 92.4454L13.9045 91.4903C13.6337 91.4375 13.457 91.1753 13.5097 90.9045ZM13.9045 91.4903L13.9045 91.4903C13.6337 91.4375 13.457 91.1753 13.5097 90.9045L14.4648 86.0016C14.5176 85.7309 14.7798 85.5541 15.0506 85.6069L15.0506 85.6069C15.3214 85.6596 15.4981 85.9219 15.4454 86.1927L14.4903 91.0955C14.4375 91.3663 14.1753 91.543 13.9045 91.4903Z">
</path>
<g >
<path     fill="#000000"  d="M43.4505 62.1861Q44.0598 61.7804 44.7337 61.7425Q45.4077 61.7046 46.0249 62.0361Q46.6421 62.3676 47.0877 63.0369Q47.5266 63.6961 47.6094 64.4051Q47.6922 65.114 47.3956 65.7512Q47.0991 66.3884 46.4398 66.8273Q45.7606 67.2795 45.0234 67.2874Q44.2862 67.2953 43.5809 66.799L43.7375 66.4929Q44.3763 66.9326 45.0153 66.9396Q45.6543 66.9467 46.2536 66.5476Q46.8329 66.1619 47.0779 65.6096Q47.3228 65.0572 47.2383 64.4431Q47.1538 63.829 46.7747 63.2597Q46.3956 62.6903 45.8683 62.3855Q45.341 62.0807 44.7535 62.097Q44.1661 62.1133 43.5967 62.4923Q42.5679 63.1773 42.5605 64.4654L42.3375 64.4985L40.2865 60.2272L43.343 58.1922L43.5292 58.4718L40.7324 60.334L42.3712 63.7697Q42.438 63.3071 42.7195 62.8962Q43.001 62.4853 43.4505 62.1861ZM49.8593 58.7118Q50.6582 58.4394 51.4119 58.6944Q52.1656 58.9495 52.6444 59.6686Q53.0368 60.258 53.0764 60.9236Q53.1159 61.5893 52.7944 62.1998Q52.4729 62.8104 51.8436 63.2293Q51.2143 63.6483 50.532 63.7062Q49.8497 63.764 49.2508 63.4708Q48.6519 63.1776 48.2595 62.5882Q47.7873 61.8791 47.8377 61.0886Q47.8881 60.2982 48.4309 59.6629Q47.7419 59.8621 47.1263 59.6305Q46.5107 59.3988 46.1183 58.8095Q45.7858 58.3101 45.7495 57.7359Q45.7132 57.1618 45.9931 56.6294Q46.273 56.0971 46.8423 55.718Q47.4117 55.3389 48.0108 55.286Q48.6099 55.2331 49.1306 55.4847Q49.6513 55.7363 49.9839 56.2357Q50.3763 56.825 50.3426 57.489Q50.3089 58.1529 49.8593 58.7118ZM47.0286 55.9977Q46.2994 56.4832 46.1475 57.2186Q45.9957 57.9541 46.4413 58.6233Q46.8802 59.2825 47.594 59.4128Q48.3079 59.543 49.057 59.0442Q49.8161 58.5387 49.9713 57.8299Q50.1265 57.1211 49.6875 56.4619Q49.4016 56.0323 48.9657 55.8108Q48.5298 55.5892 48.0189 55.6338Q47.508 55.6785 47.0286 55.9977ZM51.6574 62.9497Q52.2067 62.5839 52.475 62.0665Q52.7432 61.5491 52.7069 60.975Q52.6706 60.4009 52.3181 59.8715Q51.7861 59.0724 50.9392 58.9155Q50.0922 58.7585 49.2432 59.3238Q48.4042 59.8825 48.2223 60.7244Q48.0404 61.5664 48.5725 62.3654Q48.9249 62.8948 49.4357 63.1531Q49.9464 63.4113 50.5272 63.3634Q51.108 63.3154 51.6574 62.9497ZM56.8523 52.1094Q57.5316 51.6572 58.3052 51.8773Q59.0789 52.0974 59.7174 53.0563L61.932 56.3824L61.6424 56.5753L59.4743 53.3191Q58.8957 52.4501 58.2318 52.2433Q57.568 52.0366 56.9786 52.429Q56.5691 52.7017 56.3725 53.1425Q56.1759 53.5834 56.2571 54.1493Q56.3383 54.7151 56.7373 55.3144L58.8256 58.4508L58.5359 58.6436L56.3679 55.3874Q55.7892 54.5184 55.1204 54.315Q54.4515 54.1116 53.8722 54.4973Q53.4627 54.77 53.2611 55.2142Q53.0595 55.6584 53.1357 56.2276Q53.2119 56.7967 53.6109 57.396L55.6992 60.5324L55.4095 60.7253L51.9379 55.5113L52.1877 55.345Q52.7397 56.1741 52.9591 56.4604Q52.7698 55.7647 52.9782 55.1575Q53.1866 54.5502 53.7359 54.1844Q54.2853 53.8186 54.9193 53.8939Q55.5533 53.9691 56.1221 54.5419Q55.8729 53.7996 56.0729 53.1474Q56.273 52.4951 56.8523 52.1094ZM65.1428 46.5894Q65.822 46.1372 66.5957 46.3573Q67.3694 46.5774 68.0078 47.5363L70.2225 50.8625L69.9328 51.0553L67.7647 47.7991Q67.1861 46.9301 66.5222 46.7233Q65.8584 46.5166 65.2691 46.909Q64.8595 47.1817 64.6629 47.6225Q64.4663 48.0634 64.5475 48.6293Q64.6287 49.1951 65.0278 49.7944L67.116 52.9308L66.8264 53.1237L64.6583 49.8674Q64.0797 48.9984 63.4108 48.795Q62.742 48.5916 62.1627 48.9773Q61.7531 49.25 61.5515 49.6942Q61.3499 50.1384 61.4261 50.7076Q61.5023 51.2767 61.9014 51.876L63.9897 55.0124L63.7 55.2053L60.2284 49.9913L60.4781 49.825Q61.0301 50.6541 61.2496 50.9404Q61.0603 50.2447 61.2686 49.6375Q61.477 49.0302 62.0264 48.6644Q62.5757 48.2986 63.2097 48.3739Q63.8437 48.4491 64.4125 49.0219Q64.1633 48.2796 64.3634 47.6274Q64.5634 46.9752 65.1428 46.5894Z">
</path>
</g>
<defs>
<filter id="filter_0_788" x="0" y="0" width="124" height="124" filterUnits="userSpaceOnUse" color-interpolation-filters="sRGB">
<feFlood flood-opacity="0" result="feFloodId_0_788"/>
<feColorMatrix in="SourceAlpha" type="matrix" values="0 0 0 0 0 0 0 0 0 0 0 0 0 0 0 0 0 0 127 0" result="hardAlpha_0_788"/>
<feOffset dx="2" dy="2"/>
<feGaussianBlur stdDeviation="3"/>
<feComposite in2="hardAlpha_0_788" operator="out"/>
<feColorMatrix type="matrix" values="0 0 0 0 0 0 0 0 0 0 0 0 0 0 0 0 0 0 0.25 0"/>
<feBlend mode="normal" in2="feFloodId_0_788" result="dropShadow_1_0_788"/>
<feBlend mode="normal" in="SourceGraphic" in2="dropShadow_1_0_788" result="shape_0_788"/>
</filter>
</defs>
</svg>
