<svg xmlns="http://www.w3.org/2000/svg" xmlns:xlink="http://www.w3.org/1999/xlink" width="20.75" height="20.75" viewBox="0 0 20.75 20.75" fill="none">
<g opacity="0">
</g>
<path d="M18.5432 11.7916L18.5432 12.6561C18.5432 12.8895 18.3617 13.0797 18.1196 13.0883L16.8575 13.0883C16.3993 13.0883 15.9843 12.7512 15.9498 12.3016C15.9238 12.0336 16.0276 11.7829 16.2005 11.61C16.3561 11.4458 16.5722 11.3593 16.8056 11.3593L18.111 11.3593C18.3617 11.368 18.5432 11.5582 18.5432 11.7916Z"   fill="#007AFF" >
</path>
<path d="M15.5522 10.9703C15.1199 11.3939 14.9124 12.025 15.0853 12.682C15.3101 13.486 16.0968 13.996 16.9267 13.996L17.6788 13.996C18.1543 13.996 18.5433 14.385 18.5433 14.8605L18.5433 15.0248C18.5433 16.8142 17.0823 18.2752 15.2928 18.2752L5.36851 18.2752C3.57902 18.2752 2.11804 16.8142 2.11804 15.0248L2.11804 9.20677C2.11804 8.14345 2.62809 7.20116 3.41477 6.61331C3.9594 6.19836 4.6337 5.9563 5.36851 5.9563L15.2928 5.9563C17.0823 5.9563 18.5433 7.41728 18.5433 9.20677L18.5433 9.58714C18.5433 10.0626 18.1543 10.4516 17.6788 10.4516L16.797 10.4516C16.3129 10.4516 15.872 10.6418 15.5522 10.9703Z"   fill="#007AFF" >
</path>
<path d="M14.0047 4.16682C14.2381 4.40024 14.0392 4.76332 13.7107 4.76332L7.07149 4.75467C6.69112 4.75467 6.49228 4.28785 6.76892 4.01986L8.16939 2.61075C9.35373 1.43505 11.2729 1.43505 12.4572 2.61075L13.9701 4.14089C13.9787 4.14953 13.996 4.15818 14.0047 4.16682Z"   fill="#007AFF" >
</path>
</svg>
