<svg xmlns="http://www.w3.org/2000/svg" xmlns:xlink="http://www.w3.org/1999/xlink" width="18.35894775390625" height="18.359130859375" viewBox="0 0 18.35894775390625 18.359130859375" fill="none">
<path d="M9.20035 0.000328497C11.5565 0.00557385 13.7032 0.898039 15.3248 2.36075C17.1146 3.97445 18.2654 6.28298 18.3529 8.85978C18.3574 8.97311 18.3593 9.08701 18.3589 9.20035L18.3589 9.20035C18.3473 14.2696 14.229 18.3708 9.15876 18.3592C6.46017 18.3532 4.03583 17.1827 2.36066 15.3247C0.888381 13.6926 -0.00559355 11.5297 2.6341e-05 9.15876C0.00040081 9.04542 0.00227601 8.93152 0.0078959 8.81819C0.197294 3.90701 4.24434 -0.0107225 9.20035 0.000328497Z"   fill="#FFFFCD" >
</path>
<path d="M18.3586 9.1996C18.347 14.2689 14.2287 18.37 9.15845 18.3584C6.45986 18.3524 4.03552 17.182 2.36035 15.324L15.3245 2.35999C17.1143 3.97369 18.2651 6.28223 18.3526 8.85902C18.3571 8.97236 18.359 9.08626 18.3586 9.1996L18.3586 9.1996Z"   fill="#FDE8A3" >
</path>
<path d="M16.5162 9.17994C16.5162 9.29253 16.5132 9.40512 16.509 9.51677C16.3318 13.4068 13.1124 16.5168 9.17928 16.5168C5.24614 16.5168 2.02656 13.4068 1.84953 9.51677C1.84541 9.40512 1.84241 9.29253 1.84241 9.17994C1.84241 5.13425 5.13355 1.84314 9.17928 1.84314C13.225 1.84314 16.5162 5.13425 16.5162 9.17994L16.5162 9.17994Z"   fill="#FD8E1F" >
</path>
<path d="M16.4632 8.96529C16.4856 9.14645 16.501 9.33078 16.5092 9.51606L16.5092 9.51606C16.332 13.4061 13.1126 16.516 9.17949 16.516C9.09144 16.516 9.00451 16.514 8.9174 16.511C8.0401 16.4803 7.20158 16.295 6.42769 15.9806C5.6538 15.6663 4.94548 15.2242 4.32914 14.6796C4.17253 14.5413 4.02209 14.3971 3.87672 14.2455C3.21954 13.5565 2.69331 12.7416 2.34224 11.8388C2.25719 11.6228 2.18244 11.4007 2.11893 11.1755C1.96738 10.6442 1.87633 10.0882 1.84973 9.51606C2.02676 5.62603 5.24634 2.51495 9.17949 2.51495C9.67705 2.51495 10.1632 2.56516 10.6342 2.66033C10.8738 2.70847 11.1102 2.76879 11.3415 2.84054C12.2865 3.13222 13.1505 3.6103 13.8906 4.2317C14.0503 4.36583 14.2048 4.50708 14.3534 4.65545C14.9296 5.2287 15.4118 5.8973 15.7732 6.6354C16.1254 7.35496 16.3627 8.13914 16.4632 8.96529Z"   fill="#FBB549" >
</path>
<g opacity="0.2">
<path d="M16.4631 8.96771L8.91732 16.5134C8.04002 16.4827 7.2015 16.2974 6.42761 15.983L15.7731 6.63782C16.1253 7.35737 16.3627 8.14156 16.4631 8.96771L16.4631 8.96771Z"   fill="#FDE8A3" >
</path>
</g>
<g opacity="0.2">
<path d="M11.3418 2.84123L2.34245 11.8395C2.2574 11.6235 2.18265 11.4013 2.11914 11.1761L10.6344 2.66101C10.874 2.70915 11.1104 2.76948 11.3418 2.84123L11.3418 2.84123Z"   fill="#FDE8A3" >
</path>
</g>
<g opacity="0.2">
<path d="M14.3533 4.65513L4.32901 14.6792C4.1724 14.541 4.02196 14.3967 3.87659 14.2452L13.8905 4.23138C14.0502 4.36551 14.2047 4.50677 14.3533 4.65513L14.3533 4.65513Z"   fill="#FDE8A3" >
</path>
</g>
<path d="M9.06678 11.089C8.86464 11.1719 8.6462 11.2096 8.42777 11.2096L7.44106 11.2096L11.3414 15.1099L9.51657 15.1099L5.61621 11.2096L5.61621 9.81077L7.89404 9.81077C8.63215 9.81077 9.27229 9.35573 9.5295 8.70793L5.83146 8.70793L5.83146 7.30929L9.52725 7.30929C9.29177 6.63993 8.77528 6.28062 8.48903 6.1257L5.83146 6.1257L5.83146 4.72687L12.9329 4.72687L12.9329 6.1257L12.9329 6.1257L10.501 6.1257C10.7131 6.45166 10.8862 6.84338 10.9789 7.30929L12.9329 7.30929L12.9329 8.70793L10.995 8.70793C10.7594 10.0625 9.79852 10.7932 9.06678 11.089Z"   fill="#FC5E00" >
</path>
<path d="M5.83146 4.43042L12.9329 4.43042L12.9329 5.82925L12.9329 5.82925L10.501 5.82925C10.7131 6.15521 10.8862 6.54693 10.9789 7.01283L12.9329 7.01283L12.9329 8.41147L10.995 8.41147C10.7594 9.76609 9.79852 10.4967 9.06678 10.7925C8.86464 10.8755 8.6462 10.9131 8.42777 10.9131L7.44106 10.9131L11.3414 14.8135L9.51657 14.8135L5.61621 10.9131L5.61621 9.51432L7.89404 9.51432C8.63215 9.51432 9.27229 9.05928 9.5295 8.41147L5.83146 8.41147L5.83146 7.01283L9.52725 7.01283C9.29177 6.34348 8.77528 5.98417 8.48903 5.82925L5.83146 5.82925L5.83146 4.43042Z"   fill="#FD8201" >
</path>
</svg>
