<svg xmlns="http://www.w3.org/2000/svg" xmlns:xlink="http://www.w3.org/1999/xlink" width="25" height="25" viewBox="0 0 25 25" fill="none">
<g mask="url(#mask-60_28)">
<rect x="0" y="0" width="24.99999544456182" height="24.999998092651367"   fill="#9DB2CE" >
</rect>
</g>
<defs>
<mask id="mask-60_28" style="mask-type:alpha" maskUnits="userSpaceOnUse">
<path d="M10.9008 10.9147L12.4602 10.9147L12.4602 9.35567L10.9008 9.35567L10.9008 10.9147ZM4.66313 14.0334L4.66313 12.4741L6.22249 12.4741L6.22249 14.0334L4.66313 14.0334ZM21.8169 1.55932L21.8169 4.67771L21.8321 4.67771C23.538 4.67771 24.9219 6.06161 24.9219 7.76716L24.9219 20.2754L20.2435 24.9531L3.08981 24.9531C1.38391 24.9531 0 23.3257 0 21.6201L0 7.76716C0 6.06161 1.38391 4.67771 3.08981 4.67771L3.10352 4.67771L3.10352 1.55932C3.10352 0.696691 3.80083 0 4.66313 0C5.52667 0 6.22249 0.696691 6.22249 1.55932L6.22249 4.67771L10.9008 4.67771L10.9008 1.55932C10.9008 0.696691 11.5981 0 12.4602 0C13.3237 0 14.0195 0.696691 14.0195 1.55932L14.0195 4.67771L18.6979 4.67771L18.6979 1.55932C18.6979 0.696691 19.3952 0 20.2572 0C21.121 0 21.8169 0.696691 21.8169 1.55932ZM15.5789 12.4741L14.0195 12.4741L14.0195 14.0334L15.5789 14.0334L15.5789 12.4741ZM18.6842 18.7111L18.6842 21.8297L21.8029 18.7111L18.6842 18.7111ZM18.6979 12.4741L18.6979 14.0334L17.1385 14.0334L17.1385 12.4741L18.6979 12.4741ZM6.22249 9.35567L4.66313 9.35567L4.66313 10.9147L6.22249 10.9147L6.22249 9.35567ZM3.11897 7.79635L21.8029 7.79635L21.8029 15.5927L15.5652 15.5927L15.5652 21.8297L3.21642 21.8297C3.16757 21.7713 3.11897 21.6788 3.11897 21.6154L3.11897 7.79635ZM9.34121 18.7111L7.78185 18.7111L7.78185 20.2704L9.34121 20.2704L9.34121 18.7111ZM10.9008 14.0334L10.9008 12.4741L12.4602 12.4741L12.4602 14.0334L10.9008 14.0334ZM6.22249 18.7111L6.22249 20.2704L4.66313 20.2704L4.66313 18.7111L6.22249 18.7111ZM7.78185 9.35567L9.34121 9.35567L9.34121 10.9147L7.78185 10.9147L7.78185 9.35567ZM18.6979 10.9147L18.6979 9.35567L17.1385 9.35567L17.1385 10.9147L18.6979 10.9147ZM9.34121 14.0334L9.34121 12.4741L7.78185 12.4741L7.78185 14.0334L9.34121 14.0334ZM7.78185 15.5927L9.34121 15.5927L9.34121 17.152L7.78185 17.152L7.78185 15.5927ZM6.22249 17.152L6.22249 15.5927L4.66313 15.5927L4.66313 17.152L6.22249 17.152ZM10.9008 15.5927L10.9008 17.152L12.4602 17.152L12.4602 15.5927L10.9008 15.5927ZM14.0195 10.9147L14.0195 9.35567L15.5789 9.35567L15.5789 10.9147L14.0195 10.9147Z" fill-rule="evenodd"  fill="#9DB2CE" >
</path>
</mask>
</defs>
</svg>
