<svg xmlns="http://www.w3.org/2000/svg" xmlns:xlink="http://www.w3.org/1999/xlink" width="20.635498046875" height="20.635498046875" viewBox="0 0 20.635498046875 20.635498046875" fill="none">
<path d="M17.2307 5.86391L12.2782 2.39887C10.9283 1.45307 8.85611 1.50466 7.55779 2.51064L3.25012 5.87251C2.39031 6.54317 1.71106 7.91887 1.71106 9.00223L1.71106 14.9349C1.71106 17.1275 3.49087 18.9159 5.6834 18.9159L14.9522 18.9159C17.1447 18.9159 18.9245 17.1361 18.9245 14.9435L18.9245 9.11401C18.9245 7.95326 18.1765 6.52597 17.2307 5.86391ZM10.9626 15.4766C10.9626 15.8291 10.6703 16.1215 10.3178 16.1215C9.96527 16.1215 9.67293 15.8291 9.67293 15.4766L9.67293 12.8972C9.67293 12.5447 9.96527 12.2523 10.3178 12.2523C10.6703 12.2523 10.9626 12.5447 10.9626 12.8972L10.9626 15.4766Z"   fill="#007AFF" >
</path>
<g opacity="0">
</g>
</svg>
