<svg xmlns="http://www.w3.org/2000/svg" xmlns:xlink="http://www.w3.org/1999/xlink" width="20.6400146484375" height="20.6400146484375" viewBox="0 0 20.6400146484375 20.6400146484375" fill="none">
    <path d="M17.2352 5.86843L12.2827 2.40338C10.9328 1.45759 8.86062 1.50918 7.56231 2.51516L3.25464 5.87703C2.39483 6.54768 1.71558 7.92338 1.71558 9.00675L1.71558 14.9395C1.71558 17.132 3.49539 18.9204 5.68791 18.9204L14.9567 18.9204C17.1492 18.9204 18.929 17.1406 18.929 14.9481L18.929 9.11852C18.929 7.95778 18.181 6.53049 17.2352 5.86843ZM10.9672 15.4811C10.9672 15.8337 10.6748 16.126 10.3223 16.126C9.96978 16.126 9.67745 15.8337 9.67745 15.4811L9.67745 12.9017C9.67745 12.5492 9.96978 12.2568 10.3223 12.2568C10.6748 12.2568 10.9672 12.5492 10.9672 12.9017L10.9672 15.4811Z"   fill="#007AFF" >
    </path>
    <g opacity="0">
    </g>
</svg>

