<svg xmlns="http://www.w3.org/2000/svg" xmlns:xlink="http://www.w3.org/1999/xlink" width="20.6400146484375" height="20.639984130859375" viewBox="0 0 20.6400146484375 20.639984130859375" fill="none">
    <path d="M18.9159 10.3177L18.9159 14.6168C18.9159 17.1962 17.1962 18.9159 14.6168 18.9159L6.01867 18.9159C3.43923 18.9159 1.7196 17.1962 1.7196 14.6168L1.7196 10.3177C1.7196 7.97905 3.1297 6.3454 5.32222 6.07026C5.54577 6.03587 5.77792 6.01868 6.01867 6.01868L14.6168 6.01868C14.8404 6.01868 15.0553 6.02726 15.2617 6.06166C17.48 6.3196 18.9159 7.96185 18.9159 10.3177Z" stroke="rgba(157, 178, 206, 1)" stroke-width="1.2897196261682242" stroke-linejoin="round" stroke-linecap="round" >
    </path>
    <path d="M15.2629 6.06169C15.0565 6.0273 14.8416 6.01871 14.618 6.01871L6.01987 6.01871C5.77913 6.01871 5.54698 6.0359 5.32343 6.0703C5.4438 5.82955 5.61576 5.606 5.82212 5.39964L8.61651 2.59664C9.79445 1.4273 11.7032 1.4273 12.8812 2.59664L14.3859 4.11853C14.9361 4.66021 15.2285 5.34805 15.2629 6.06169Z" stroke="rgba(157, 178, 206, 1)" stroke-width="1.2897196261682242" stroke-linejoin="round" stroke-linecap="round" >
    </path>
    <path    stroke="rgba(157, 178, 206, 1)" stroke-width="1.2897196261682242" stroke-linejoin="round" stroke-linecap="round"  d="M18.9159 10.7477L16.3364 10.7477C15.3907 10.7477 14.6168 11.5215 14.6168 12.4673C14.6168 13.4131 15.3907 14.1869 16.3364 14.1869L18.9159 14.1869">
    </path>
    <g opacity="0">
    </g>
</svg>
