<svg xmlns="http://www.w3.org/2000/svg" xmlns:xlink="http://www.w3.org/1999/xlink" width="9.97747802734375" height="17.131103515625" viewBox="0 0 9.97747802734375 17.131103515625" fill="none">
<path   fill="rgba(0, 0, 0, 1)"  d="M1.75471 0.301019L9.97748 8.5238L8.52386 9.97742L0.30108 1.75465L1.75471 0.301019ZM0.30108 1.75465C-0.100328 1.35324 -0.100328 0.702427 0.30108 0.301019C0.702488 -0.100389 1.3533 -0.100389 1.75471 0.301019C2.15611 0.702427 2.15611 1.35324 1.75471 1.75465C1.3533 2.15605 0.702488 2.15605 0.30108 1.75465Z">
</path>
<path   fill="rgba(0, 0, 0, 1)"  d="M0.30108 15.3765L8.52386 7.15368L9.97748 8.60731L1.75471 16.8301L0.30108 15.3765ZM1.75471 16.8301C1.3533 17.2315 0.702488 17.2315 0.30108 16.8301C-0.100328 16.4287 -0.100328 15.7779 0.30108 15.3765C0.702488 14.9751 1.3533 14.9751 1.75471 15.3765C2.15611 15.7779 2.15611 16.4287 1.75471 16.8301Z">
</path>
</svg>
