<svg xmlns="http://www.w3.org/2000/svg" xmlns:xlink="http://www.w3.org/1999/xlink" width="22.54205322265625" height="22.5419921875" viewBox="0 0 22.54205322265625 22.5419921875" fill="none">
<path d="M20.3536 6.5279C19.7525 4.48972 18.0524 2.78968 16.0142 2.18855C14.4645 1.73771 13.3937 1.77528 12.6517 2.32944C11.7594 2.99631 11.6561 4.19855 11.6561 5.05327L11.6561 7.39201C11.6561 9.70257 12.7081 10.8766 14.7744 10.8766L17.4701 10.8766C18.3154 10.8766 19.527 10.7733 20.1939 9.88103C20.7668 9.14841 20.8138 8.07767 20.3536 6.5279Z"   fill="#007AFF" >
</path>
<path d="M17.7613 12.5485C17.5171 12.2667 17.1602 12.107 16.7939 12.107L13.4313 12.107C11.7783 12.107 10.4351 10.7639 10.4351 9.11081L10.4351 5.74828C10.4351 5.38197 10.2754 5.02506 9.99367 4.78085C9.72129 4.53665 9.34559 4.42394 8.98867 4.4709C6.78143 4.75268 4.75264 5.96431 3.4283 7.78646C2.09456 9.618 1.60615 11.8534 2.02881 14.0888C2.63933 17.3199 5.22227 19.9028 8.46269 20.5133C8.97928 20.6166 9.49587 20.6636 10.0125 20.6636C11.7125 20.6636 13.3562 20.1376 14.7557 19.1138C16.5778 17.7895 17.7895 15.7607 18.0712 13.5535C18.1182 13.1872 18.0055 12.8209 17.7613 12.5485Z"   fill="#007AFF" >
</path>
<g opacity="0">
</g>
</svg>
