<svg xmlns="http://www.w3.org/2000/svg" xmlns:xlink="http://www.w3.org/1999/xlink" width="11.8800048828125" height="17.6800537109375" viewBox="0 0 11.8800048828125 17.6800537109375" fill="none">
    <path d="M3.16992 8.56018C3.16992 10.33 4.28014 11.56 5.93992 11.56C7.59971 11.56 8.70992 10.33 8.70992 8.56018L8.70992 2.99982C8.70992 1.22998 7.59971 0 5.93992 0C4.28014 0 3.16992 1.22998 3.16992 2.99982L3.16992 8.56018Z"   fill="#3C3C43" fill-opacity="0.6">
    </path>
    <path d="M1.24978 8.63988L1.24978 7.01042C1.24978 6.66012 0.9801 6.37988 0.620136 6.37988C0.269676 6.37988 0 6.66012 0 7.01042L0 8.6896C0 11.9395 2.15028 14.23 5.31036 14.4899L5.31036 16.4301L2.22988 16.4301C1.87942 16.4301 1.60024 16.7103 1.60024 17.0595C1.60024 17.4098 1.87942 17.6799 2.22988 17.6799L9.65012 17.6799C10.0006 17.6799 10.2798 17.4098 10.2798 17.0595C10.2798 16.7103 10.0006 16.4301 9.65012 16.4301L6.56964 16.4301L6.56964 14.4899C9.74041 14.23 11.88 11.9395 11.88 8.6896L11.88 7.01042C11.88 6.66012 11.6103 6.37988 11.2599 6.37988C10.9106 6.37988 10.6302 6.66012 10.6302 7.01042L10.6302 8.63988C10.6302 11.4694 8.78051 13.3497 5.94 13.3497C3.09949 13.3497 1.24978 11.4694 1.24978 8.63988Z"   fill="#3C3C43" fill-opacity="0.6">
    </path>
</svg>
